<?xml version="1.0" encoding="UTF-8"?>
<svg width="11px" height="11px" viewBox="0 0 11 11" version="1.1" xmlns="http://www.w3.org/2000/svg" xmlns:xlink="http://www.w3.org/1999/xlink">
    <!-- Generator: Sketch 52 (66869) - http://www.bohemiancoding.com/sketch -->
    <title>Fill 1</title>
    <desc>Created with Sketch.</desc>
    <g id="Design" stroke="none" stroke-width="1" fill="none" fill-rule="evenodd">
        <g id="Home" transform="translate(-1355.000000, -50.000000)" fill="#FFFFFF">
            <path d="M1365.38284,58.1089822 C1365.28407,58.0515976 1365.1433,57.9735879 1364.96117,57.8745881 C1364.77886,57.7756313 1364.61338,57.6844303 1364.46502,57.6010926 C1364.31638,57.5177548 1364.17714,57.4370382 1364.047,57.3590286 C1364.02622,57.3434095 1363.9611,57.2979057 1363.85174,57.2222164 C1363.74224,57.1467419 1363.64992,57.0907322 1363.57425,57.0542089 C1363.49875,57.0178789 1363.42449,56.9996172 1363.35155,56.9996172 C1363.24741,56.9996172 1363.11731,57.073867 1362.96111,57.2222164 C1362.80491,57.3707376 1362.66165,57.5320634 1362.53149,57.7067096 C1362.40133,57.8812483 1362.26326,58.0425956 1362.11757,58.1910309 C1361.97166,58.3395306 1361.85179,58.413716 1361.75813,58.413716 C1361.71112,58.413716 1361.65249,58.4006105 1361.58225,58.3747649 C1361.51204,58.3487259 1361.45862,58.3264251 1361.42195,58.3084642 C1361.38559,58.2900737 1361.32324,58.2537651 1361.23464,58.1988941 C1361.14586,58.1441735 1361.09648,58.1142244 1361.08611,58.1089822 C1360.37255,57.7130904 1359.76059,57.2599429 1359.25012,56.7497114 C1358.73977,56.2391577 1358.28655,55.6272839 1357.89072,54.9137033 C1357.88552,54.9032834 1357.8555,54.8537835 1357.80087,54.7652895 C1357.74612,54.6767096 1357.70964,54.6142976 1357.69142,54.5777313 C1357.6732,54.5413153 1357.65107,54.4879053 1357.62507,54.4176086 C1357.59907,54.3473118 1357.58601,54.288767 1357.58601,54.2418237 C1357.58601,54.1481306 1357.66026,54.028291 1357.80871,53.8824338 C1357.95713,53.7366841 1358.11866,53.5986043 1358.29308,53.4684952 C1358.46763,53.3383861 1358.62897,53.195107 1358.77745,53.0389159 C1358.92588,52.8826389 1359.00009,52.7525083 1359.00009,52.6483522 C1359.00009,52.5754774 1358.98187,52.5011846 1358.94545,52.4257101 C1358.90901,52.3500423 1358.85302,52.2577241 1358.77745,52.1483044 C1358.70189,52.0389277 1358.65632,51.9738731 1358.64065,51.9529474 C1358.56262,51.8228382 1358.48198,51.6835338 1358.39853,51.5350771 C1358.3151,51.3866633 1358.22403,51.2212339 1358.12502,51.0389609 C1358.0261,50.8567737 1357.94802,50.7160943 1357.89068,50.617159 C1357.70848,50.2526558 1357.57048,50.0546347 1357.47669,50.0235039 C1357.44021,50.0078848 1357.38548,50 1357.31265,50 C1357.17194,50 1356.98837,50.025996 1356.76182,50.07816 C1356.53517,50.1302165 1356.35684,50.1848297 1356.22661,50.2422144 C1355.96617,50.3515481 1355.69014,50.6692155 1355.39845,51.1951734 C1355.1328,51.684651 1355,52.1691227 1355,52.6482233 C1355,52.7887309 1355.00911,52.9254357 1355.02735,53.0583593 C1355.04557,53.1911539 1355.07812,53.3409212 1355.12507,53.5076181 C1355.17191,53.6742506 1355.2097,53.7980434 1355.23828,53.8786741 C1355.26687,53.9593263 1355.32024,54.1038299 1355.39841,54.3122279 C1355.47644,54.520583 1355.52339,54.648114 1355.53901,54.6949928 C1355.72129,55.2054391 1355.93744,55.6611003 1356.18742,56.0621698 C1356.59872,56.7287857 1357.15999,57.4177238 1357.87093,58.1286619 C1358.58191,58.839557 1359.27074,59.4007922 1359.93746,59.8122386 C1360.33849,60.0621659 1360.79437,60.2782768 1361.30474,60.4606788 C1361.35165,60.476212 1361.47921,60.5230478 1361.68747,60.6013582 C1361.89581,60.6794538 1362.04039,60.7328208 1362.12107,60.7614809 C1362.20177,60.7901625 1362.32559,60.8279749 1362.4921,60.8749182 C1362.65898,60.9218185 1362.80861,60.9543888 1362.94141,60.9727364 C1363.0743,60.9907188 1363.21103,61 1363.35157,61 C1363.83068,61 1364.31522,60.8671194 1364.80479,60.6015516 C1365.33072,60.3099662 1365.64836,60.0338925 1365.75773,59.7732876 C1365.81524,59.6431999 1365.86973,59.4648155 1365.92181,59.2381988 C1365.97404,59.0116894 1366,58.8281488 1366,58.6874694 C1366.00017,58.6143367 1365.99228,58.559745 1365.9766,58.5229853 C1365.94549,58.4292277 1365.74752,58.2911264 1365.38284,58.1089822 Z" id="Fill-1"></path>
        </g>
    </g>
</svg>