<?xml version="1.0" encoding="UTF-8"?>
<svg width="25px" height="25px" viewBox="0 0 25 25" version="1.1" xmlns="http://www.w3.org/2000/svg" xmlns:xlink="http://www.w3.org/1999/xlink">
    <!-- Generator: Sketch 52 (66869) - http://www.bohemiancoding.com/sketch -->
    <title>Group 8</title>
    <desc>Created with Sketch.</desc>
    <g id="Symbols" stroke="none" stroke-width="1" fill="none" fill-rule="evenodd" opacity="0.5">
        <g id="Footer" transform="translate(-1306.000000, -902.000000)" fill="#FFFFFF">
            <g id="Group-2">
                <g id="Footer" transform="translate(0.000000, 855.000000)">
                    <g id="Group">
                        <g id="Group-8" transform="translate(1306.000000, 47.000000)">
                            <path d="M8.01266,11.4707542 C8.00686,11.6099035 7.98496,11.7447563 7.95356,11.8806831 C7.94196,11.9326322 7.92796,11.9848742 7.91876,12.0380927 C7.91636,12.0505918 7.91176,12.1162116 7.89556,12.1207035 C7.91286,12.0075287 7.90136,11.8929869 7.88866,11.7809839 C7.87806,11.677867 7.86306,11.5748477 7.83756,11.4739766 C7.78766,11.2747735 7.69606,11.0891434 7.54296,10.9462835 C7.39456,10.8092825 7.20556,10.7219846 7.00826,10.6767733 C6.59896,10.5828353 6.15126,10.6643719 5.78016,10.847756 C5.42286,11.0244024 5.12946,11.3053375 4.94396,11.6529666 C4.74916,12.0187583 4.66446,12.4560288 4.78736,12.8579506 C4.89856,13.2203246 5.16076,13.5340696 5.50636,13.7038806 C5.88446,13.8908777 6.34386,13.9099191 6.74276,13.7775076 C6.93176,13.7153054 7.10216,13.6032048 7.25546,13.4809488 C7.41766,13.3517596 7.56396,13.2045055 7.69846,13.0505136 C7.84216,12.8863663 7.97326,12.7118682 8.08686,12.5272147 C8.20626,12.3348469 8.30856,12.1263671 8.40226,11.9203285 C8.47666,11.7368467 8.55546,11.5556109 8.63326,11.3733009 C8.71666,11.1750742 8.80956,10.9802652 8.88026,10.7775467 C8.51596,10.7775467 8.15076,10.7618252 7.78896,10.7174928 C7.85386,10.831937 7.92576,10.9462835 7.96626,11.0720549 C8.00796,11.1999746 8.01616,11.3369756 8.01266,11.4707542 Z" id="Fill-1"></path>
                            <path d="M19.4936,10.9022147 C19.1155,10.7154129 18.6561,10.6972502 18.2573,10.8286853 C18.0671,10.8920592 17.8978,11.0030857 17.7446,11.1265136 C17.5824,11.2555074 17.4363,11.4015897 17.3015,11.5556792 C17.1566,11.7200219 17.0267,11.894227 16.9131,12.0788806 C16.7936,12.2726154 16.6916,12.4797281 16.5977,12.6858644 C16.5234,12.8694438 16.4446,13.050582 16.3667,13.2329896 C16.2833,13.431021 16.1905,13.6259277 16.1198,13.8287438 C16.4839,13.8287438 16.8493,13.8445629 17.2113,13.8897742 C17.1463,13.7741583 17.0743,13.6609835 17.0337,13.534138 C16.9918,13.4062183 16.9838,13.2691196 16.9874,13.1356339 C16.9931,12.9973635 17.0151,12.861339 17.0465,12.725705 C17.0581,12.6735607 17.0719,12.6213186 17.0813,12.5693696 C17.0835,12.5557964 17.0882,12.491153 17.1044,12.4867588 C17.0872,12.5987618 17.0987,12.7131084 17.1102,12.8262831 C17.1217,12.9283259 17.137,13.0313452 17.1624,13.1322162 C17.2124,13.3315171 17.304,13.5183189 17.4571,13.6609835 C17.6054,13.7979845 17.7945,13.8852824 17.9915,13.9294196 C18.4011,14.0233576 18.8488,13.9419186 19.2199,13.7584368 C19.5771,13.5816928 19.8705,13.3007578 20.056,12.9543004 C20.2508,12.5874346 20.3357,12.1502617 20.2126,11.7481447 C20.1012,11.3869424 19.8392,11.0732951 19.4936,10.9022147" id="Fill-3"></path>
                            <g id="Group-7" transform="translate(0.000000, 0.096574)">
                                <path d="M20.58481,13.3180904 C20.14061,13.9250742 19.40311,14.3521893 18.63291,14.3850969 C18.42531,14.3929088 18.21641,14.3725002 18.01591,14.3170358 C17.91611,14.2887177 17.81991,14.2523924 17.72711,14.2070834 C17.67851,14.1832572 17.63081,14.1573803 17.58561,14.1278904 C17.54391,14.1018182 17.50561,14.0735001 17.45811,14.0565093 C17.36061,14.0213558 17.25161,14.0202816 17.15071,14.009052 C17.02791,13.9954789 16.90481,13.9841516 16.78191,13.9750703 C16.53491,13.9579818 16.28551,13.9501699 16.03851,13.9727267 C15.99671,14.0654929 15.95501,14.1583568 15.91441,14.2513183 C15.72071,14.6975725 15.53871,15.1471467 15.34391,15.5922291 C15.14771,16.0395575 14.94951,16.4867881 14.75001,16.93314 C14.55631,17.3624033 14.36151,17.7926432 14.12951,18.2037438 C13.91851,18.5786169 13.66781,18.9330814 13.33981,19.2185083 C12.74481,19.7349719 11.88891,20.0541852 11.09781,19.8232462 C10.71861,19.7111456 10.38691,19.4665358 10.16881,19.1448813 C9.93121,18.7926627 9.82331,18.366817 9.83261,17.9479045 C9.83491,17.885507 9.83831,17.8233048 9.84431,17.7609074 C9.88821,17.3317417 10.04021,16.9103879 10.29071,16.5537751 C10.41351,16.379277 10.56091,16.2163015 10.73361,16.0894559 C10.91801,15.9524549 11.13621,15.8505097 11.34601,15.7575482 C11.30431,15.7870381 11.26381,15.8153562 11.22191,15.843479 C10.87281,16.0870147 10.54481,16.3543766 10.34281,16.732765 C10.14221,17.1086146 10.05181,17.5650242 10.14001,17.9852062 C10.22691,18.3939634 10.52261,18.7395418 10.92271,18.8902137 C11.31481,19.0384443 11.74971,18.9943071 12.13011,18.8379716 C12.31671,18.762001 12.49191,18.6600559 12.64961,18.5356515 C12.81191,18.4042165 12.94771,18.2490528 13.06821,18.0813901 C13.33401,17.7145243 13.53221,17.3068413 13.71901,16.8968147 C14.11561,16.0224689 14.47511,15.1313276 14.90071,14.2673326 C14.37071,14.4811831 13.92541,14.8402371 13.55891,15.2659851 C13.27021,15.6013104 13.03471,15.9829213 12.84461,16.379277 C12.79801,16.4755586 12.75631,16.579652 12.69031,16.6657781 C12.62991,16.7439946 12.53601,16.7734845 12.43981,16.7825658 C12.19391,16.8039509 11.95031,16.756396 11.70561,16.7349133 C11.78571,16.6137313 11.85171,16.4846399 11.91661,16.3567202 C11.98271,16.2241134 12.05121,16.0928736 12.11721,15.9602668 C12.24951,15.6930025 12.38171,15.4257382 12.51171,15.1573998 C12.72401,14.7224729 12.91751,14.2807105 13.10311,13.8345539 C13.28871,13.3906433 13.47541,12.9478068 13.64011,12.4947172 C13.72121,12.2717854 13.79781,12.04651 13.86271,11.8176217 C13.92431,11.60465 13.99391,11.3804488 13.99141,11.157224 C13.98921,10.9591926 13.91031,10.7665319 13.74791,10.6421276 C13.58211,10.5128408 13.37211,10.4994629 13.17851,10.5706488 C12.79941,10.7111651 12.51871,11.029402 12.30751,11.3554507 C12.07791,11.707767 11.93411,12.0972873 11.81341,12.4959866 C11.84241,12.3396512 11.87611,12.1855617 11.91781,12.0328392 C11.97931,11.8074662 12.05811,11.588831 12.15911,11.3783005 C12.25421,11.1834915 12.35971,10.9908308 12.49541,10.8198481 C12.62641,10.6533572 12.78071,10.5050289 12.95121,10.3771092 C13.11591,10.2524119 13.29791,10.1403113 13.49741,10.0769373 C13.68531,10.0168834 13.90791,9.99540075 14.10051,10.0509628 C14.29181,10.1052554 14.44501,10.2343469 14.54481,10.4020096 C14.74531,10.7416315 14.71521,11.1686489 14.65841,11.5412761 C14.59001,12.0022752 14.44261,12.4459905 14.27341,12.8798434 C14.09701,13.3294176 13.91151,13.7757695 13.75261,14.2298356 C14.17371,14.0101262 14.63631,13.8731251 15.10841,13.8085794 C15.26381,13.4596809 15.41921,13.1120518 15.57691,12.7654968 C15.64991,12.6057437 15.73111,12.4484318 15.80891,12.2910222 C15.89581,12.1165241 15.97701,11.9388036 16.06991,11.7665514 C16.27291,11.3883583 16.51621,11.0337962 16.84211,10.746221 C17.45221,10.2061265 18.30931,9.93642098 19.12821,10.0292848 C19.49571,10.0701996 19.85881,10.1856203 20.16851,10.3872647 C20.48391,10.5923268 20.73321,10.883222 20.87581,11.2251875 C21.16471,11.9138056 21.02081,12.7213597 20.58481,13.3180904 M10.87171,14.991983 C10.87421,15.170973 10.85551,15.4552281 10.65491,15.5322729 C10.54701,15.5729923 10.42991,15.5751406 10.31731,15.5603957 C10.26411,15.5525838 10.21181,15.5446742 10.15841,15.5390106 C10.11671,15.533347 10.09231,15.5175279 10.09121,15.4732931 C10.08881,15.3883388 10.10631,15.2920573 10.12601,15.2094465 C10.14801,15.1210745 10.18631,15.0371944 10.25351,14.9726486 L10.27791,14.9580013 C10.37761,14.91279 10.48911,14.9026346 10.59801,14.9104464 C10.65141,14.9138642 10.70351,14.9218713 10.75581,14.9307574 C10.78131,14.9353468 10.80681,14.9411081 10.83231,14.9455023 C10.84511,14.94892 10.85771,14.9513612 10.87051,14.9535095 C10.87051,14.9670826 10.87051,14.979484 10.87171,14.991983 M14.90891,8.9399168 C14.91121,9.02604289 14.89391,9.12115264 14.87291,9.20376338 C14.85201,9.29213538 14.81381,9.37601555 14.74651,9.44056128 L14.72211,9.45520858 C14.62241,9.50041989 14.51111,9.51067299 14.40201,9.50266581 C14.34881,9.4994434 14.29651,9.49251035 14.24441,9.48235489 C14.21891,9.47776541 14.19341,9.47327357 14.16771,9.46760995 C14.15501,9.46546168 14.14221,9.46194633 14.12951,9.45979806 C14.12951,9.4462249 14.12951,9.43362823 14.12851,9.42132451 C14.12601,9.24331107 14.14471,8.95807945 14.34521,8.88103468 C14.45191,8.84031521 14.57021,8.83797164 14.68271,8.85388837 C14.73611,8.86072377 14.78831,8.86863331 14.84151,8.87429693 C14.88341,8.87996055 14.90771,8.89568198 14.90891,8.9399168 M9.19011,12.1221877 C9.10431,12.2966858 9.02301,12.4744063 8.93031,12.6466585 C8.72731,13.0248516 8.48261,13.3794137 8.15781,13.6669889 C7.54781,14.2070834 6.68971,14.4765936 5.87201,14.3850969 C5.50321,14.3430103 5.14131,14.227492 4.83171,14.0259452 C4.51621,13.8208831 4.26681,13.5298902 4.12421,13.1878271 C3.83551,12.4993067 3.97811,11.6929244 4.41541,11.0951195 C4.85941,10.488038 5.59711,10.0611183 6.36711,10.0283083 C6.57481,10.0203988 6.78351,10.0417838 6.98411,10.0973459 C7.08381,10.1244922 7.18021,10.1619893 7.27291,10.2061265 C7.32171,10.2297574 7.36921,10.2570014 7.41441,10.2853195 C7.45621,10.3113917 7.49441,10.3397098 7.54201,10.3578724 C7.63821,10.3918542 7.74731,10.3941001 7.84941,10.4041579 C7.97231,10.4178287 8.09521,10.4290583 8.21811,10.4382372 C8.46531,10.4553258 8.71461,10.4641141 8.96161,10.4404832 C9.00331,10.347717 9.04521,10.2548531 9.08461,10.1619893 C9.27941,9.71671159 9.46151,9.2660632 9.65631,8.82098078 C9.85231,8.37365245 10.05061,7.92642176 10.25011,7.4812417 C10.44261,7.05080658 10.63851,6.62056675 10.87051,6.20946606 C11.08051,5.83566714 11.33221,5.48003086 11.66041,5.19577572 C12.25531,4.67823803 13.11131,4.36009882 13.90221,4.59103781 C14.28141,4.70216194 14.61321,4.94677174 14.83121,5.26940278 C15.06901,5.62054722 15.17671,6.04629521 15.16741,6.46530544 C15.16521,6.52770291 15.16171,6.59000273 15.15481,6.65230255 C15.11181,7.08273768 14.95991,7.50282205 14.70941,7.85953246 C14.58651,8.03403054 14.43921,8.19700609 14.26631,8.32492579 C14.08201,8.46085267 13.86401,8.56279783 13.65401,8.65566167 C13.69571,8.62734357 13.73641,8.59785368 13.77811,8.56953558 C14.12721,8.32599992 14.45541,8.05893094 14.65721,7.68161667 C14.85771,7.30566948 14.94841,6.84818569 14.86021,6.42917546 C14.77331,6.01924654 14.47631,5.67376572 14.07731,5.5230939 C13.68531,5.37593743 13.25041,5.4200746 12.86891,5.57523826 C12.68321,5.65101359 12.50801,5.75295875 12.35041,5.87873018 C12.18691,6.00899344 12.05231,6.1641571 11.93181,6.33181978 C11.66511,6.69868565 11.46781,7.10646629 11.28111,7.5163952 C10.88451,8.39181509 10.52501,9.28305406 10.09941,10.1459749 C10.62811,9.93192915 11.07471,9.57297281 11.44111,9.14829896 C11.73001,8.81199711 11.96541,8.43028865 12.15561,8.03403054 C12.20201,7.93765136 12.24381,7.83463206 12.30991,7.74743184 C12.37021,7.6692153 12.46421,7.63982306 12.56041,7.63191352 C12.80621,7.60925904 13.05091,7.65671627 13.29461,7.67829662 C13.21451,7.79947856 13.14831,7.92866768 13.08341,8.05648973 C13.01611,8.18899891 12.94901,8.3203363 12.88271,8.45284548 C12.75051,8.72020741 12.61831,8.98854582 12.48831,9.25581009 C12.27621,9.6908347 12.08251,10.1324018 11.89691,10.578656 C11.71141,11.0225666 11.52471,11.4654031 11.36001,11.9182974 C11.27881,12.1414245 11.20221,12.3667975 11.13621,12.5956859 C11.07581,12.8085599 11.00631,13.0327611 11.00851,13.2557906 C11.00981,13.4550914 11.08981,13.6464827 11.25211,13.77118 C11.41791,13.9001738 11.62791,13.9149188 11.82151,13.8425611 C12.20081,13.7021424 12.48151,13.3839056 12.69251,13.0588333 C12.92211,12.7055406 13.06601,12.3159226 13.18661,11.9172233 C13.15761,12.0735587 13.12411,12.2287224 13.08221,12.3815425 C13.02071,12.6057437 12.94181,12.824379 12.83991,13.0351047 C12.74591,13.229816 12.64041,13.4222815 12.50471,13.5932642 C12.37371,13.7598527 12.21951,13.908181 12.04901,14.0361983 C11.88421,14.160798 11.70091,14.2739727 11.50261,14.3363702 C11.31481,14.3974006 11.09101,14.4178092 10.89961,14.3634189 C10.70811,14.3090286 10.55511,14.1787653 10.45541,14.0112979 C10.25481,13.6713831 10.28491,13.244561 10.34171,12.8720315 C10.41021,12.4109347 10.55741,11.9670241 10.72671,11.5332689 C10.90191,11.0836946 11.08851,10.6387099 11.24741,10.1833743 C10.82651,10.4030837 10.36371,10.5401824 9.89171,10.6058023 C9.73631,10.953529 9.57981,11.3012558 9.42201,11.6478107 C9.34891,11.8074662 9.26891,11.9648758 9.19011,12.1221877 M12.50001,0.00106436997 C5.59711,0.00106436997 9.99999975e-06,5.46538356 9.99999975e-06,12.2072397 C9.99999975e-06,18.9477287 5.59711,24.4121455 12.50001,24.4121455 C19.40311,24.4121455 25.00001,18.9477287 25.00001,12.2072397 C25.00001,5.46538356 19.40311,0.00106436997 12.50001,0.00106436997" id="Fill-5"></path>
                            </g>
                        </g>
                    </g>
                </g>
            </g>
        </g>
    </g>
</svg>